<?xml version="1.0" encoding="UTF-8"?>
<svg version="1.1" xmlns="http://www.w3.org/2000/svg" width="512" height="512">
<path d="M0 0 C18.88789709 -0.48276461 36.07243777 6.0182824 50 19 C62.23526582 30.74339583 71.457746 47.07380004 72.13028526 64.345994 C72.13284136 65.63105807 72.13539745 66.91612215 72.13803101 68.24012756 C72.14085229 68.95872167 72.14367357 69.67731577 72.14658034 70.41768545 C72.15489821 72.82021603 72.15626219 75.22270036 72.15771484 77.62524414 C72.16238528 79.35033294 72.16752923 81.0754205 72.17311096 82.80050659 C72.18437979 86.51418504 72.19281998 90.22785553 72.19923019 93.94154549 C72.20993019 99.82193596 72.23018179 105.70226931 72.25234985 111.58262634 C72.31420234 128.30399955 72.36822624 145.02536958 72.40136719 161.74682617 C72.41975307 170.98309168 72.44874004 180.21926154 72.4893719 189.45545667 C72.51037797 194.33845776 72.52589004 199.22133864 72.52817917 204.10438728 C72.53033767 208.70340674 72.54632874 213.3021761 72.57256889 217.90111923 C72.57971818 219.58119131 72.58188428 221.26129383 72.57846642 222.94137764 C72.5501004 239.54785693 75.3122693 256.90947992 87.2890625 269.48828125 C98.43542624 279.33678072 112.0535766 285.71102861 127.109375 285.30859375 C143.03143976 283.60880576 156.62575197 277.51922178 167 265 C175.20555555 254.00418842 177.60643485 241.83081107 177.51416016 228.35375977 C177.52128525 227.05761749 177.52841034 225.76147522 177.53575134 224.42605591 C177.55094569 221.63458343 177.55395058 218.84347764 177.54698563 216.05197334 C177.53607779 211.6236941 177.55372332 207.19578885 177.57479858 202.76756287 C177.60492242 195.75458678 177.61673982 188.74172362 177.62037504 181.72868818 C177.62703908 169.18839152 177.6563873 156.64817466 177.7054714 144.10797352 C177.72180955 139.72046009 177.72741771 135.33311094 177.72388101 130.94557011 C177.72354625 128.86657226 177.72768357 126.7876373 177.73365784 124.70864868 C177.74067233 122.19402523 177.74083482 119.67936732 177.73213196 117.16474915 C177.82247336 98.09282499 181.04238011 82.71395392 194.3203125 68.51953125 C205.86416989 57.43965526 219.22407678 53.16711783 235 53 C248.15097587 53.82193599 259.17920722 58.24296814 269 67 C269.92232422 67.78310547 269.92232422 67.78310547 270.86328125 68.58203125 C280.79411927 77.63208541 285.43016364 89.95066308 287 103 C287.14098621 106.30283923 287.14377994 109.6019687 287.1418457 112.9074707 C287.14705734 114.36257553 287.14705734 114.36257553 287.15237427 115.84707642 C287.15970021 117.94446051 287.16506235 120.04185219 287.16866493 122.13924599 C287.17586683 125.46530467 287.19156072 128.79121893 287.21000671 132.11723328 C287.26230466 141.57089271 287.31044028 151.02447043 287.32592773 160.47827148 C287.33603594 166.27015717 287.36542831 172.06167465 287.40724754 177.85341454 C287.41951713 180.05287066 287.42468623 182.25237885 287.42244911 184.45186806 C287.42008339 187.53642423 287.44235821 190.61993181 287.4699707 193.7043457 C287.46336929 194.60182022 287.45676788 195.49929474 287.44996643 196.42396545 C287.59197358 206.14491669 291.20757075 214.98115644 298 222 C305.27892436 228.05661442 312.78246199 230.46374366 322 232 C322 244.21 322 256.42 322 269 C300.50827837 267.46487703 285.22824971 262.38798659 270 247 C269.30390625 246.33742188 268.6078125 245.67484375 267.890625 244.9921875 C263.59103627 240.60927341 260.56206797 235.84911887 257.75 230.4375 C257.43272949 229.84380615 257.11545898 229.2501123 256.78857422 228.63842773 C250.02803525 214.87044624 249.43288738 200.67992397 249.5141449 185.66285706 C249.5316389 182.33220857 249.52377746 179.00241014 249.5098877 175.67175293 C249.48475572 168.61444135 249.49002556 161.55733797 249.5 154.5 C249.51155877 146.28603123 249.51034472 138.07248224 249.47593689 129.85856628 C249.4688725 126.58796274 249.4854721 123.31803538 249.50305176 120.04748535 C249.49734369 118.03751262 249.49052632 116.02754262 249.48242188 114.01757812 C249.49373642 113.11770172 249.50505096 112.21782532 249.51670837 111.29067993 C249.46052999 105.4455537 248.42022319 100.8353091 245 96 C239.76184149 91.83085343 235.67674578 90.45272576 229 91 C223.20423575 92.89227378 219.8675373 95.49432838 217 101 C215.95580108 104.25109749 215.87065357 107.25312925 215.86196899 110.65705872 C215.85651566 111.81044739 215.85106232 112.96383606 215.84544373 114.1521759 C215.8444014 115.41398178 215.84335907 116.67578766 215.84228516 117.97583008 C215.83761431 119.32152471 215.8324703 120.66721777 215.82688904 122.01290894 C215.81561864 124.9108293 215.80717893 127.80873945 215.80076981 130.70667458 C215.7900579 135.30242828 215.7698004 139.89810916 215.74765015 144.49382019 C215.68584662 157.5628217 215.63187317 170.63182007 215.59863281 183.70092773 C215.58019314 190.91927968 215.5511352 198.13751046 215.5106281 205.35577315 C215.48970118 209.16857153 215.47412153 212.98121812 215.47182083 216.79407692 C215.4696476 220.39177435 215.45351157 223.98915667 215.42743111 227.58675766 C215.4169959 229.51014686 215.42094874 231.43359804 215.4256134 233.35700989 C215.31573738 245.08855681 213.55928203 256.78631746 208.875 267.625 C208.5756958 268.33027832 208.2763916 269.03555664 207.96801758 269.76220703 C198.26127165 291.68354339 179.97866354 308.0128378 158 317 C134.72970091 325.33478096 109.26647654 324.3574943 86.734375 314.33984375 C63.17681505 302.79663938 47.07912823 283.32704102 38.625 258.6875 C37.22495962 253.53241761 36.46014876 248.47386065 35.91439819 243.17652893 C35.78545278 241.92806021 35.78545278 241.92806021 35.65390241 240.65436989 C34.84338273 232.25708715 34.72055925 223.91755621 34.74462891 215.48803711 C34.741868 213.83645456 34.73818153 212.18487334 34.73365784 210.53329468 C34.72564598 207.02173495 34.72335148 203.51023849 34.72560501 199.99867058 C34.72847447 194.43693358 34.71395664 188.87531982 34.69662476 183.31361389 C34.64992727 167.51418846 34.62564107 151.71477479 34.61914062 135.9152832 C34.61538464 127.15502668 34.59732671 118.39491319 34.56404626 109.634718 C34.54392062 104.1136826 34.5414163 98.59301817 34.55232644 93.07196128 C34.55494275 89.63633301 34.54088755 86.20091902 34.52224541 82.76534653 C34.51694813 81.18116985 34.51837776 79.59695311 34.52728081 78.01279259 C34.5866977 66.50793981 33.35541375 55.65230662 25 47 C17.65725507 41.03577807 10.32563065 38.14191396 1 37 C0 36 0 36 -0.11352539 32.58178711 C-0.11336628 31.06363012 -0.10767226 29.54546771 -0.09765625 28.02734375 C-0.0962413 27.22970108 -0.09482635 26.43205841 -0.09336853 25.61024475 C-0.08775316 23.05262565 -0.07519812 20.49509282 -0.0625 17.9375 C-0.05748698 16.20768355 -0.05292373 14.47786574 -0.04882812 12.74804688 C-0.03777875 8.49866447 -0.02050386 4.24934688 0 0 Z " fill="#FFFFFF" transform="translate(107,107)"/>
</svg>
